<?xml version="1.0" encoding="UTF-8" standalone="no"?><score-partwise version="3.0"><movement-title>Chúc Ông Khải</movement-title><identification><creator type="composer">ViNo</creator></identification><part-list><score-part id="P0"><part-name>Acoustic Guitar</part-name></score-part><score-part id="P1"><part-name>Acoustic Guitar</part-name></score-part></part-list><part id="P0"><measure implicit="yes" number="1" width="339"><attributes><divisions>12</divisions><key><fifths>-2</fifths><mode>major</mode></key><time><beats>3</beats><beat-type>4</beat-type></time><staves>1</staves><clef number="1"><sign>G</sign><line>2</line><clef-octave-change>-1</clef-octave-change></clef></attributes><direction placement="above"><direction-type><metronome><beat-unit>quarter</beat-unit><per-minute>87</per-minute></metronome></direction-type><sound tempo="87"/></direction><note default-x="12.00"><rest/><duration>24</duration><voice>1</voice><type>half</type><staff>1</staff><notations/></note><note default-x="169.50"><pitch><step>G</step><alter>0</alter><octave>4</octave></pitch><duration>3</duration><voice>1</voice><type>16th</type><staff>1</staff><notations><technical/></notations><lyric default-y="-80" number="1"><syllabic>single</syllabic><text>(Mở</text></lyric></note><note default-x="189.19"><pitch><step>G</step><alter>0</alter><octave>4</octave></pitch><duration>3</duration><voice>1</voice><type>16th</type><staff>1</staff><notations><technical/></notations><lyric default-y="-80" number="1"><syllabic>single</syllabic><text>đầu)</text></lyric></note><harmony default-y="100"><root><root-step>C</root-step><root-alter>0</root-alter></root><kind>minor-seventh</kind></harmony><note default-x="208.88"><pitch><step>B</step><alter>-1</alter><octave>4</octave></pitch><duration>3</duration><voice>1</voice><type>16th</type><staff>1</staff><notations><technical/></notations><lyric default-y="-80" number="1"><syllabic>single</syllabic><text>Xin</text></lyric></note><harmony default-y="100"><root><root-step>C</root-step><root-alter>0</root-alter></root><kind>minor</kind></harmony><note default-x="228.56"><pitch><step>C</step><alter>0</alter><octave>3</octave></pitch><duration>3</duration><voice>1</voice><type>16th</type><staff>1</staff><notations><technical/></notations><lyric default-y="-80" number="1"><syllabic>single</syllabic><text>phép</text></lyric></note><backup><duration>36</duration></backup></measure><measure number="2" width="339"><attributes><divisions>12</divisions></attributes><note default-x="12.00"><pitch><step>C</step><alter>0</alter><octave>5</octave></pitch><duration>3</duration><voice>1</voice><type>16th</type><staff>1</staff><notations><technical/></notations><lyric default-y="-80" number="1"><syllabic>single</syllabic><text>ông</text></lyric></note><note default-x="31.69"><pitch><step>B</step><alter>-1</alter><octave>4</octave></pitch><duration>3</duration><voice>1</voice><type>16th</type><staff>1</staff><notations><technical/></notations><lyric default-y="-80" number="1"><syllabic>single</syllabic><text>bà</text></lyric></note><note default-x="51.38"><pitch><step>C</step><alter>0</alter><octave>5</octave></pitch><duration>6</duration><voice>1</voice><type>eighth</type><staff>1</staff><notations><technical/></notations><lyric default-y="-80" number="1"><syllabic>single</syllabic><text>tổ</text></lyric></note><note default-x="51.38"><chord/><pitch><step>C</step><alter>0</alter><octave>4</octave></pitch><duration>6</duration><voice>1</voice><type>eighth</type><staff>1</staff><notations><technical/></notations></note><note default-x="51.38"><chord/><pitch><step>E</step><alter>-1</alter><octave>4</octave></pitch><duration>6</duration><voice>1</voice><type>eighth</type><staff>1</staff><notations><technical/></notations></note><note default-x="90.75"><pitch><step>E</step><alter>-1</alter><octave>4</octave></pitch><duration>6</duration><voice>1</voice><type>eighth</type><staff>1</staff><notations><technical/></notations><lyric default-y="-80" number="1"><syllabic>single</syllabic><text>tiên</text></lyric></note><note default-x="90.75"><chord/><pitch><step>C</step><alter>0</alter><octave>4</octave></pitch><duration>6</duration><voice>1</voice><type>eighth</type><staff>1</staff><notations><technical/></notations></note><note default-x="130.12"><pitch><step>G</step><alter>0</alter><octave>3</octave></pitch><duration>6</duration><voice>1</voice><type>eighth</type><staff>1</staff><notations><technical/></notations><lyric default-y="-80" number="1"><syllabic>single</syllabic><text>Cho</text></lyric></note><note default-x="169.50"><pitch><step>E</step><alter>-1</alter><octave>4</octave></pitch><duration>3</duration><voice>1</voice><type>16th</type><staff>1</staff><notations><technical/></notations><lyric default-y="-80" number="1"><syllabic>single</syllabic><text>con</text></lyric></note><note default-x="169.50"><chord/><pitch><step>C</step><alter>0</alter><octave>4</octave></pitch><duration>3</duration><voice>1</voice><type>16th</type><staff>1</staff><notations><technical/></notations></note><note default-x="189.19"><pitch><step>G</step><alter>0</alter><octave>4</octave></pitch><duration>3</duration><voice>1</voice><type>16th</type><staff>1</staff><notations><technical/></notations><lyric default-y="-80" number="1"><syllabic>single</syllabic><text>hát</text></lyric></note><note default-x="208.88"><pitch><step>E</step><alter>-1</alter><octave>4</octave></pitch><duration>3</duration><voice>1</voice><type>16th</type><staff>1</staff><notations><technical/></notations><lyric default-y="-80" number="1"><syllabic>single</syllabic><text>khúc</text></lyric></note><note default-x="208.88"><chord/><pitch><step>G</step><alter>0</alter><octave>4</octave></pitch><duration>3</duration><voice>1</voice><type>16th</type><staff>1</staff><notations><technical/></notations></note><note default-x="208.88"><chord/><pitch><step>C</step><alter>0</alter><octave>4</octave></pitch><duration>3</duration><voice>1</voice><type>16th</type><staff>1</staff><notations><technical/></notations></note><note default-x="228.56"><pitch><step>A</step><alter>0</alter><octave>4</octave></pitch><duration>3</duration><voice>1</voice><type>16th</type><staff>1</staff><notations><technical/></notations><lyric default-y="-80" number="1"><syllabic>single</syllabic><text>đầu</text></lyric></note><backup><duration>36</duration></backup></measure><measure number="3" width="339"><attributes><divisions>12</divisions></attributes><harmony default-y="100"><root><root-step>G</root-step><root-alter>0</root-alter></root><kind>minor</kind></harmony><note default-x="12.00"><pitch><step>B</step><alter>-1</alter><octave>4</octave></pitch><duration>3</duration><voice>1</voice><type>16th</type><staff>1</staff><notations><technical/></notations><lyric default-y="-80" number="1"><syllabic>single</syllabic><text>xuân</text></lyric></note><note default-x="12.00"><chord/><pitch><step>G</step><alter>0</alter><octave>2</octave></pitch><duration>3</duration><voice>1</voice><type>16th</type><staff>1</staff><notations><technical/></notations></note><note default-x="31.69"><pitch><step>A</step><alter>0</alter><octave>4</octave></pitch><duration>3</duration><voice>1</voice><type>16th</type><staff>1</staff><notations><technical/></notations><lyric default-y="-80" number="1"><syllabic>single</syllabic><text>Kính</text></lyric></note><note default-x="51.38"><pitch><step>B</step><alter>-1</alter><octave>4</octave></pitch><duration>6</duration><voice>1</voice><type>eighth</type><staff>1</staff><notations><technical/></notations><lyric default-y="-80" number="1"><syllabic>single</syllabic><text>mời</text></lyric></note><note default-x="51.38"><chord/><pitch><step>B</step><alter>-1</alter><octave>3</octave></pitch><duration>6</duration><voice>1</voice><type>eighth</type><staff>1</staff><notations><technical/></notations></note><note default-x="51.38"><chord/><pitch><step>D</step><alter>0</alter><octave>4</octave></pitch><duration>6</duration><voice>1</voice><type>eighth</type><staff>1</staff><notations><technical/></notations></note><note default-x="90.75"><pitch><step>D</step><alter>0</alter><octave>4</octave></pitch><duration>3</duration><voice>1</voice><type>16th</type><staff>1</staff><notations><technical/></notations><lyric default-y="-80" number="1"><syllabic>single</syllabic><text>thần</text></lyric></note><note default-x="90.75"><chord/><pitch><step>B</step><alter>-1</alter><octave>3</octave></pitch><duration>3</duration><voice>1</voice><type>16th</type><staff>1</staff><notations><technical/></notations></note><note default-x="110.44"><pitch><step>B</step><alter>-1</alter><octave>3</octave></pitch><duration>3</duration><voice>1</voice><type>16th</type><staff>1</staff><notations><technical/></notations><lyric default-y="-80" number="1"><syllabic>single</syllabic><text>linh</text></lyric></note><note default-x="130.12"><pitch><step>G</step><alter>0</alter><octave>3</octave></pitch><duration>6</duration><voice>1</voice><type>eighth</type><staff>1</staff><notations><technical/></notations><lyric default-y="-80" number="1"><syllabic>single</syllabic><text>giáng</text></lyric></note><note default-x="169.50"><pitch><step>B</step><alter>-1</alter><octave>3</octave></pitch><duration>3</duration><voice>1</voice><type>16th</type><staff>1</staff><notations><technical/></notations><lyric default-y="-80" number="1"><syllabic>single</syllabic><text>hạ</text></lyric></note><note default-x="169.50"><chord/><pitch><step>D</step><alter>0</alter><octave>4</octave></pitch><duration>3</duration><voice>1</voice><type>16th</type><staff>1</staff><notations><technical/></notations></note><note default-x="189.19"><pitch><step>G</step><alter>0</alter><octave>4</octave></pitch><duration>3</duration><voice>1</voice><type>16th</type><staff>1</staff><notations><technical/></notations><lyric default-y="-80" number="1"><syllabic>single</syllabic><text>Phù</text></lyric></note><note default-x="208.88"><pitch><step>G</step><alter>0</alter><octave>4</octave></pitch><duration>3</duration><voice>1</voice><type>16th</type><staff>1</staff><notations><technical/></notations><lyric default-y="-80" number="1"><syllabic>single</syllabic><text>hộ</text></lyric></note><note default-x="208.88"><chord/><pitch><step>B</step><alter>-1</alter><octave>3</octave></pitch><duration>3</duration><voice>1</voice><type>16th</type><staff>1</staff><notations><technical/></notations></note><note default-x="208.88"><chord/><pitch><step>D</step><alter>0</alter><octave>4</octave></pitch><duration>3</duration><voice>1</voice><type>16th</type><staff>1</staff><notations><technical/></notations></note><harmony default-y="100"><root><root-step>D</root-step><root-alter>0</root-alter></root><kind>minor</kind></harmony><note default-x="228.56"><pitch><step>B</step><alter>-1</alter><octave>4</octave></pitch><duration>3</duration><voice>1</voice><type>16th</type><staff>1</staff><notations><technical/></notations><lyric default-y="-80" number="1"><syllabic>single</syllabic><text>gia</text></lyric></note><backup><duration>36</duration></backup></measure><measure number="4" width="339"><attributes><divisions>12</divisions></attributes><note default-x="12.00"><pitch><step>A</step><alter>0</alter><octave>4</octave></pitch><duration>6</duration><voice>1</voice><type>eighth</type><staff>1</staff><notations><technical/></notations><lyric default-y="-80" number="1"><syllabic>single</syllabic><text>chủ</text></lyric></note><note default-x="12.00"><chord/><pitch><step>F</step><alter>0</alter><octave>2</octave></pitch><duration>6</duration><voice>1</voice><type>eighth</type><staff>1</staff><notations><technical/></notations></note><note default-x="51.38"><pitch><step>A</step><alter>0</alter><octave>3</octave></pitch><duration>6</duration><voice>1</voice><type>eighth</type><staff>1</staff><notations><technical/></notations><lyric default-y="-80" number="1"><syllabic>single</syllabic><text>bình</text></lyric></note><note default-x="51.38"><chord/><pitch><step>D</step><alter>0</alter><octave>4</octave></pitch><duration>6</duration><voice>1</voice><type>eighth</type><staff>1</staff><notations><technical/></notations></note><note default-x="90.75"><pitch><step>A</step><alter>0</alter><octave>3</octave></pitch><duration>3</duration><voice>1</voice><type>16th</type><staff>1</staff><notations><technical/></notations><lyric default-y="-80" number="1"><syllabic>single</syllabic><text>an</text></lyric></note><note default-x="90.75"><chord/><pitch><step>D</step><alter>0</alter><octave>4</octave></pitch><duration>3</duration><voice>1</voice><type>16th</type><staff>1</staff><notations><technical/></notations></note><note default-x="110.44"><pitch><step>G</step><alter>0</alter><octave>4</octave></pitch><duration>3</duration><voice>1</voice><type>16th</type><staff>1</staff><notations><technical/></notations><lyric default-y="-80" number="1"><syllabic>single</syllabic><text>(Lời</text></lyric></note><note default-x="130.12"><pitch><step>G</step><alter>0</alter><octave>4</octave></pitch><duration>6</duration><voice>1</voice><type>eighth</type><staff>1</staff><notations><technical/></notations><lyric default-y="-80" number="1"><syllabic>single</syllabic><text>chúc</text></lyric></note><note default-x="130.12"><chord/><pitch><step>F</step><alter>0</alter><octave>3</octave></pitch><duration>6</duration><voice>1</voice><type>eighth</type><staff>1</staff><notations><technical/></notations></note><note default-x="169.50"><pitch><step>G</step><alter>0</alter><octave>4</octave></pitch><duration>6</duration><voice>1</voice><type>eighth</type><staff>1</staff><notations><technical/></notations><lyric default-y="-80" number="1"><syllabic>single</syllabic><text>tụng)</text></lyric></note><note default-x="169.50"><chord/><pitch><step>A</step><alter>0</alter><octave>3</octave></pitch><duration>6</duration><voice>1</voice><type>eighth</type><staff>1</staff><notations><technical/></notations></note><note default-x="169.50"><chord/><pitch><step>D</step><alter>0</alter><octave>4</octave></pitch><duration>6</duration><voice>1</voice><type>eighth</type><staff>1</staff><notations><technical/></notations></note><note default-x="208.88"><pitch><step>A</step><alter>0</alter><octave>3</octave></pitch><duration>3</duration><voice>1</voice><type>16th</type><staff>1</staff><notations><technical/></notations><lyric default-y="-80" number="1"><syllabic>single</syllabic><text>Lúa</text></lyric></note><harmony default-y="100"><root><root-step>E</root-step><root-alter>-1</root-alter></root><kind>major</kind></harmony><note default-x="228.56"><pitch><step>F</step><alter>0</alter><octave>4</octave></pitch><duration>3</duration><voice>1</voice><type>16th</type><staff>1</staff><notations><technical/></notations><lyric default-y="-80" number="1"><syllabic>single</syllabic><text>vàng</text></lyric></note><backup><duration>36</duration></backup></measure><measure number="5" width="339"><attributes><divisions>12</divisions></attributes><note default-x="12.00"><pitch><step>G</step><alter>0</alter><octave>4</octave></pitch><duration>6</duration><voice>1</voice><type>eighth</type><staff>1</staff><notations><technical/></notations><lyric default-y="-80" number="1"><syllabic>single</syllabic><text>trĩu</text></lyric></note><note default-x="12.00"><chord/><pitch><step>E</step><alter>-1</alter><octave>3</octave></pitch><duration>6</duration><voice>1</voice><type>eighth</type><staff>1</staff><notations><technical/></notations></note><note default-x="51.38"><pitch><step>G</step><alter>0</alter><octave>3</octave></pitch><duration>6</duration><voice>1</voice><type>eighth</type><staff>1</staff><notations><technical/></notations><lyric default-y="-80" number="1"><syllabic>single</syllabic><text>hạt</text></lyric></note><note default-x="51.38"><chord/><pitch><step>B</step><alter>-1</alter><octave>3</octave></pitch><duration>6</duration><voice>1</voice><type>eighth</type><staff>1</staff><notations><technical/></notations></note><note default-x="90.75"><pitch><step>B</step><alter>-1</alter><octave>3</octave></pitch><duration>6</duration><voice>1</voice><type>eighth</type><staff>1</staff><notations><technical/></notations><lyric default-y="-80" number="1"><syllabic>single</syllabic><text>đồng</text></lyric></note><note default-x="90.75"><chord/><pitch><step>G</step><alter>0</alter><octave>3</octave></pitch><duration>6</duration><voice>1</voice><type>eighth</type><staff>1</staff><notations><technical/></notations></note><note default-x="130.12"><pitch><step>E</step><alter>-1</alter><octave>3</octave></pitch><duration>6</duration><voice>1</voice><type>eighth</type><staff>1</staff><notations><technical/></notations><lyric default-y="-80" number="1"><syllabic>single</syllabic><text>xa</text></lyric></note><note default-x="169.50"><pitch><step>B</step><alter>-1</alter><octave>3</octave></pitch><duration>3</duration><voice>1</voice><type>16th</type><staff>1</staff><notations><technical/></notations><lyric default-y="-80" number="1"><syllabic>single</syllabic><text>Trâu</text></lyric></note><note default-x="169.50"><chord/><pitch><step>G</step><alter>0</alter><octave>3</octave></pitch><duration>3</duration><voice>1</voice><type>16th</type><staff>1</staff><notations><technical/></notations></note><note default-x="189.19"><pitch><step>G</step><alter>0</alter><octave>4</octave></pitch><duration>3</duration><voice>1</voice><type>16th</type><staff>1</staff><notations><technical/></notations><lyric default-y="-80" number="1"><syllabic>single</syllabic><text>bò</text></lyric></note><note default-x="208.88"><pitch><step>G</step><alter>0</alter><octave>3</octave></pitch><duration>3</duration><voice>1</voice><type>16th</type><staff>1</staff><notations><technical/></notations><lyric default-y="-80" number="1"><syllabic>single</syllabic><text>no</text></lyric></note><note default-x="208.88"><chord/><pitch><step>G</step><alter>0</alter><octave>4</octave></pitch><duration>3</duration><voice>1</voice><type>16th</type><staff>1</staff><notations><technical/></notations></note><note default-x="208.88"><chord/><pitch><step>B</step><alter>-1</alter><octave>3</octave></pitch><duration>3</duration><voice>1</voice><type>16th</type><staff>1</staff><notations><technical/></notations></note><note default-x="228.56"><pitch><step>B</step><alter>-1</alter><octave>4</octave></pitch><duration>3</duration><voice>1</voice><type>16th</type><staff>1</staff><notations><technical/></notations><lyric default-y="-80" number="1"><syllabic>single</syllabic><text>ấm</text></lyric></note><backup><duration>36</duration></backup></measure><measure number="6" width="339"><attributes><divisions>12</divisions></attributes><harmony default-y="100"><root><root-step>C</root-step><root-alter>0</root-alter></root><kind>minor-seventh</kind></harmony><note default-x="12.00"><pitch><step>C</step><alter>0</alter><octave>3</octave></pitch><duration>3</duration><voice>1</voice><type>16th</type><staff>1</staff><notations><technical/></notations><lyric default-y="-80" number="1"><syllabic>single</syllabic><text>cả</text></lyric></note><note default-x="12.00"><chord/><pitch><step>C</step><alter>0</alter><octave>5</octave></pitch><duration>3</duration><voice>1</voice><type>16th</type><staff>1</staff><notations><technical/></notations></note><note default-x="31.69"><pitch><step>B</step><alter>-1</alter><octave>4</octave></pitch><duration>3</duration><voice>1</voice><type>16th</type><staff>1</staff><notations><technical/></notations><lyric default-y="-80" number="1"><syllabic>single</syllabic><text>nhà</text></lyric></note><note default-x="51.38"><pitch><step>C</step><alter>0</alter><octave>5</octave></pitch><duration>6</duration><voice>1</voice><type>eighth</type><staff>1</staff><notations><technical/></notations><lyric default-y="-80" number="1"><syllabic>single</syllabic><text>Gà</text></lyric></note><note default-x="51.38"><chord/><pitch><step>E</step><alter>-1</alter><octave>4</octave></pitch><duration>6</duration><voice>1</voice><type>eighth</type><staff>1</staff><notations><technical/></notations></note><harmony default-y="100"><root><root-step>C</root-step><root-alter>0</root-alter></root><kind>minor</kind></harmony><note default-x="90.75"><pitch><step>E</step><alter>-1</alter><octave>4</octave></pitch><duration>6</duration><voice>1</voice><type>eighth</type><staff>1</staff><notations><technical/></notations><lyric default-y="-80" number="1"><syllabic>single</syllabic><text>vịt</text></lyric></note><note default-x="130.12"><pitch><step>G</step><alter>0</alter><octave>3</octave></pitch><duration>3</duration><voice>1</voice><type>16th</type><staff>1</staff><notations><technical/></notations><lyric default-y="-80" number="1"><syllabic>single</syllabic><text>đầy</text></lyric></note><note default-x="149.81"><pitch><step>D</step><alter>0</alter><octave>5</octave></pitch><duration>3</duration><voice>1</voice><type>16th</type><staff>1</staff><notations><technical/></notations><lyric default-y="-80" number="1"><syllabic>single</syllabic><text>sân</text></lyric></note><note default-x="169.50"><pitch><step>C</step><alter>0</alter><octave>5</octave></pitch><duration>3</duration><voice>1</voice><type>16th</type><staff>1</staff><notations><technical/></notations><lyric default-y="-80" number="1"><syllabic>single</syllabic><text>rộn</text></lyric></note><note default-x="169.50"><chord/><pitch><step>E</step><alter>-1</alter><octave>4</octave></pitch><duration>3</duration><voice>1</voice><type>16th</type><staff>1</staff><notations><technical/></notations></note><note default-x="189.19"><pitch><step>B</step><alter>-1</alter><octave>4</octave></pitch><duration>3</duration><voice>1</voice><type>16th</type><staff>1</staff><notations><technical/></notations><lyric default-y="-80" number="1"><syllabic>single</syllabic><text>ràng</text></lyric></note><note default-x="208.88"><pitch><step>C</step><alter>0</alter><octave>4</octave></pitch><duration>3</duration><voice>1</voice><type>16th</type><staff>1</staff><notations><technical/></notations><lyric default-y="-80" number="1"><syllabic>single</syllabic><text>Kho</text></lyric></note><note default-x="208.88"><chord/><pitch><step>G</step><alter>0</alter><octave>4</octave></pitch><duration>3</duration><voice>1</voice><type>16th</type><staff>1</staff><notations><technical/></notations></note><note default-x="228.56"><pitch><step>A</step><alter>0</alter><octave>4</octave></pitch><duration>3</duration><voice>1</voice><type>16th</type><staff>1</staff><notations><technical/></notations><lyric default-y="-80" number="1"><syllabic>single</syllabic><text>lẫm</text></lyric></note><backup><duration>36</duration></backup></measure><measure number="7" width="339"><attributes><divisions>12</divisions></attributes><harmony default-y="100"><root><root-step>G</root-step><root-alter>0</root-alter></root><kind>minor</kind></harmony><note default-x="12.00"><pitch><step>B</step><alter>-1</alter><octave>4</octave></pitch><duration>3</duration><voice>1</voice><type>16th</type><staff>1</staff><notations><technical/></notations><lyric default-y="-80" number="1"><syllabic>single</syllabic><text>đầy</text></lyric></note><note default-x="12.00"><chord/><pitch><step>G</step><alter>0</alter><octave>2</octave></pitch><duration>3</duration><voice>1</voice><type>16th</type><staff>1</staff><notations><technical/></notations></note><note default-x="31.69"><pitch><step>A</step><alter>0</alter><octave>4</octave></pitch><duration>3</duration><voice>1</voice><type>16th</type><staff>1</staff><notations><technical/></notations><lyric default-y="-80" number="1"><syllabic>single</syllabic><text>ắp</text></lyric></note><note default-x="51.38"><pitch><step>B</step><alter>-1</alter><octave>4</octave></pitch><duration>6</duration><voice>1</voice><type>eighth</type><staff>1</staff><notations><technical/></notations><lyric default-y="-80" number="1"><syllabic>single</syllabic><text>chứa</text></lyric></note><note default-x="51.38"><chord/><pitch><step>B</step><alter>-1</alter><octave>3</octave></pitch><duration>6</duration><voice>1</voice><type>eighth</type><staff>1</staff><notations><technical/></notations></note><note default-x="51.38"><chord/><pitch><step>D</step><alter>0</alter><octave>4</octave></pitch><duration>6</duration><voice>1</voice><type>eighth</type><staff>1</staff><notations><technical/></notations></note><note default-x="90.75"><pitch><step>D</step><alter>0</alter><octave>4</octave></pitch><duration>6</duration><voice>1</voice><type>eighth</type><staff>1</staff><notations><technical/></notations><lyric default-y="-80" number="1"><syllabic>single</syllabic><text>chan</text></lyric></note><note default-x="90.75"><chord/><pitch><step>B</step><alter>-1</alter><octave>3</octave></pitch><duration>6</duration><voice>1</voice><type>eighth</type><staff>1</staff><notations><technical/></notations></note><note default-x="130.12"><pitch><step>G</step><alter>0</alter><octave>3</octave></pitch><duration>6</duration><voice>1</voice><type>eighth</type><staff>1</staff><notations><technical/></notations><lyric default-y="-80" number="1"><syllabic>single</syllabic><text>Mưa</text></lyric></note><note default-x="169.50"><pitch><step>B</step><alter>-1</alter><octave>4</octave></pitch><duration>3</duration><voice>1</voice><type>16th</type><staff>1</staff><notations><technical/></notations><lyric default-y="-80" number="1"><syllabic>single</syllabic><text>thuận</text></lyric></note><note default-x="169.50"><chord/><pitch><step>D</step><alter>0</alter><octave>4</octave></pitch><duration>3</duration><voice>1</voice><type>16th</type><staff>1</staff><notations><technical/></notations></note><note default-x="169.50"><chord/><pitch><step>B</step><alter>-1</alter><octave>3</octave></pitch><duration>3</duration><voice>1</voice><type>16th</type><staff>1</staff><notations><technical/></notations></note><note default-x="189.19"><pitch><step>B</step><alter>-1</alter><octave>4</octave></pitch><duration>3</duration><voice>1</voice><type>16th</type><staff>1</staff><notations><technical/></notations><lyric default-y="-80" number="1"><syllabic>single</syllabic><text>gió</text></lyric></note><note default-x="208.88"><pitch><step>B</step><alter>-1</alter><octave>4</octave></pitch><duration>3</duration><voice>1</voice><type>16th</type><staff>1</staff><notations><technical/></notations><lyric default-y="-80" number="1"><syllabic>single</syllabic><text>hòa</text></lyric></note><note default-x="208.88"><chord/><pitch><step>D</step><alter>0</alter><octave>4</octave></pitch><duration>3</duration><voice>1</voice><type>16th</type><staff>1</staff><notations><technical/></notations></note><note default-x="208.88"><chord/><pitch><step>B</step><alter>-1</alter><octave>3</octave></pitch><duration>3</duration><voice>1</voice><type>16th</type><staff>1</staff><notations><technical/></notations></note><harmony default-y="100"><root><root-step>F</root-step><root-alter>0</root-alter></root><kind>major</kind></harmony><note default-x="228.56"><pitch><step>C</step><alter>0</alter><octave>5</octave></pitch><duration>3</duration><voice>1</voice><type>16th</type><staff>1</staff><notations><technical/></notations><lyric default-y="-80" number="1"><syllabic>single</syllabic><text>quanh</text></lyric></note><backup><duration>36</duration></backup></measure><measure number="8" width="339"><attributes><divisions>12</divisions></attributes><note default-x="12.00"><pitch><step>A</step><alter>0</alter><octave>4</octave></pitch><duration>6</duration><voice>1</voice><type>eighth</type><staff>1</staff><notations><technical/></notations><lyric default-y="-80" number="1"><syllabic>single</syllabic><text>năm</text></lyric></note><note default-x="12.00"><chord/><pitch><step>F</step><alter>0</alter><octave>2</octave></pitch><duration>6</duration><voice>1</voice><type>eighth</type><staff>1</staff><notations><technical/></notations></note><note default-x="51.38"><pitch><step>A</step><alter>0</alter><octave>3</octave></pitch><duration>6</duration><voice>1</voice><type>eighth</type><staff>1</staff><notations><technical/></notations><lyric default-y="-80" number="1"><syllabic>single</syllabic><text>Quốc</text></lyric></note><note default-x="51.38"><chord/><pitch><step>D</step><alter>0</alter><octave>4</octave></pitch><duration>6</duration><voice>1</voice><type>eighth</type><staff>1</staff><notations><technical/></notations></note><note default-x="90.75"><pitch><step>A</step><alter>0</alter><octave>3</octave></pitch><duration>3</duration><voice>1</voice><type>16th</type><staff>1</staff><notations><technical/></notations><lyric default-y="-80" number="1"><syllabic>single</syllabic><text>thái</text></lyric></note><note default-x="90.75"><chord/><pitch><step>D</step><alter>0</alter><octave>4</octave></pitch><duration>3</duration><voice>1</voice><type>16th</type><staff>1</staff><notations><technical/></notations></note><note default-x="110.44"><pitch><step>G</step><alter>0</alter><octave>4</octave></pitch><duration>3</duration><voice>1</voice><type>16th</type><staff>1</staff><notations><technical/></notations><lyric default-y="-80" number="1"><syllabic>single</syllabic><text>dân</text></lyric></note><note default-x="130.12"><pitch><step>F</step><alter>0</alter><octave>3</octave></pitch><duration>6</duration><voice>1</voice><type>eighth</type><staff>1</staff><notations><technical/></notations><lyric default-y="-80" number="1"><syllabic>single</syllabic><text>an</text></lyric></note><note default-x="130.12"><chord/><pitch><step>G</step><alter>0</alter><octave>4</octave></pitch><duration>6</duration><voice>1</voice><type>eighth</type><staff>1</staff><notations><technical/></notations></note><note default-x="169.50"><pitch><step>G</step><alter>0</alter><octave>4</octave></pitch><duration>12</duration><voice>1</voice><type>quarter</type><staff>1</staff><notations><technical/></notations><lyric default-y="-80" number="1"><syllabic>single</syllabic><text>muôn</text></lyric></note><note default-x="169.50"><chord/><pitch><step>A</step><alter>0</alter><octave>3</octave></pitch><duration>12</duration><voice>1</voice><type>quarter</type><staff>1</staff><notations><technical/></notations></note><note default-x="169.50"><chord/><pitch><step>D</step><alter>0</alter><octave>4</octave></pitch><duration>12</duration><voice>1</voice><type>quarter</type><staff>1</staff><notations><technical/></notations></note><backup><duration>36</duration></backup></measure></part><part id="P1"><measure implicit="yes" number="1" width="339"><attributes><divisions>12</divisions><key><fifths>-2</fifths><mode>major</mode></key><time><beats>3</beats><beat-type>4</beat-type></time><staves>1</staves><clef number="1"><sign>TAB</sign><line>5</line></clef><staff-details><staff-lines>6</staff-lines><staff-tuning line="1"><tuning-step>E</tuning-step><tuning-alter>0</tuning-alter><tuning-octave>2</tuning-octave></staff-tuning><staff-tuning line="2"><tuning-step>A</tuning-step><tuning-alter>0</tuning-alter><tuning-octave>2</tuning-octave></staff-tuning><staff-tuning line="3"><tuning-step>D</tuning-step><tuning-alter>0</tuning-alter><tuning-octave>3</tuning-octave></staff-tuning><staff-tuning line="4"><tuning-step>G</tuning-step><tuning-alter>0</tuning-alter><tuning-octave>3</tuning-octave></staff-tuning><staff-tuning line="5"><tuning-step>B</tuning-step><tuning-alter>0</tuning-alter><tuning-octave>3</tuning-octave></staff-tuning><staff-tuning line="6"><tuning-step>E</tuning-step><tuning-alter>0</tuning-alter><tuning-octave>4</tuning-octave></staff-tuning></staff-details></attributes><note default-x="12.00"><rest/><duration>24</duration><voice>1</voice><type>half</type><staff>1</staff><notations/></note><note default-x="169.50"><pitch><step>G</step><alter>0</alter><octave>4</octave></pitch><duration>3</duration><voice>1</voice><type>16th</type><stem>none</stem><staff>1</staff><notations><technical><string>1</string><fret>3</fret></technical></notations><lyric default-y="-80" number="1"><syllabic>single</syllabic><text>phần</text></lyric></note><note default-x="189.19"><pitch><step>G</step><alter>0</alter><octave>4</octave></pitch><duration>3</duration><voice>1</voice><type>16th</type><stem>none</stem><staff>1</staff><notations><technical><string>1</string><fret>3</fret></technical></notations><lyric default-y="-80" number="1"><syllabic>single</syllabic><text>Cây</text></lyric></note><note default-x="208.88"><pitch><step>B</step><alter>-1</alter><octave>4</octave></pitch><duration>3</duration><voice>1</voice><type>16th</type><stem>none</stem><staff>1</staff><notations><technical><string>1</string><fret>6</fret></technical></notations><lyric default-y="-80" number="1"><syllabic>single</syllabic><text>trái</text></lyric></note><note default-x="228.56"><pitch><step>C</step><alter>0</alter><octave>3</octave></pitch><duration>3</duration><voice>1</voice><type>16th</type><stem>none</stem><staff>1</staff><notations><technical><string>6</string><fret>8</fret></technical></notations><lyric default-y="-80" number="1"><syllabic>single</syllabic><text>ngọt</text></lyric></note><backup><duration>36</duration></backup></measure><measure number="2" width="339"><attributes><divisions>12</divisions></attributes><note default-x="12.00"><pitch><step>C</step><alter>0</alter><octave>5</octave></pitch><duration>3</duration><voice>1</voice><type>16th</type><stem>none</stem><staff>1</staff><notations><technical><string>1</string><fret>8</fret></technical></notations><lyric default-y="-80" number="1"><syllabic>single</syllabic><text>lành</text></lyric></note><note default-x="31.69"><pitch><step>B</step><alter>-1</alter><octave>4</octave></pitch><duration>3</duration><voice>1</voice><type>16th</type><stem>none</stem><staff>1</staff><notations><technical><string>1</string><fret>6</fret></technical></notations><lyric default-y="-80" number="1"><syllabic>single</syllabic><text>trổ</text></lyric></note><note default-x="51.38"><pitch><step>C</step><alter>0</alter><octave>5</octave></pitch><duration>6</duration><voice>1</voice><type>eighth</type><stem>none</stem><staff>1</staff><notations><technical><string>1</string><fret>8</fret></technical></notations><lyric default-y="-80" number="1"><syllabic>single</syllabic><text>bông</text></lyric></note><note default-x="51.38"><chord/><pitch><step>C</step><alter>0</alter><octave>4</octave></pitch><duration>6</duration><voice>1</voice><type>eighth</type><stem>none</stem><staff>1</staff><notations><technical><string>3</string><fret>5</fret></technical></notations></note><note default-x="51.38"><chord/><pitch><step>E</step><alter>-1</alter><octave>4</octave></pitch><duration>6</duration><voice>1</voice><type>eighth</type><stem>none</stem><staff>1</staff><notations><technical><string>2</string><fret>4</fret></technical></notations></note><note default-x="90.75"><pitch><step>E</step><alter>-1</alter><octave>4</octave></pitch><duration>6</duration><voice>1</voice><type>eighth</type><stem>none</stem><staff>1</staff><notations><technical><string>2</string><fret>4</fret></technical></notations><lyric default-y="-80" number="1"><syllabic>single</syllabic><text>Ấm</text></lyric></note><note default-x="90.75"><chord/><pitch><step>C</step><alter>0</alter><octave>4</octave></pitch><duration>6</duration><voice>1</voice><type>eighth</type><stem>none</stem><staff>1</staff><notations><technical><string>3</string><fret>5</fret></technical></notations></note><note default-x="130.12"><pitch><step>G</step><alter>0</alter><octave>3</octave></pitch><duration>6</duration><voice>1</voice><type>eighth</type><stem>none</stem><staff>1</staff><notations><technical><string>3</string><fret>0</fret></technical></notations><lyric default-y="-80" number="1"><syllabic>single</syllabic><text>no</text></lyric></note><note default-x="169.50"><pitch><step>E</step><alter>-1</alter><octave>4</octave></pitch><duration>3</duration><voice>1</voice><type>16th</type><stem>none</stem><staff>1</staff><notations><technical><string>2</string><fret>4</fret></technical></notations><lyric default-y="-80" number="1"><syllabic>single</syllabic><text>hạnh</text></lyric></note><note default-x="169.50"><chord/><pitch><step>C</step><alter>0</alter><octave>4</octave></pitch><duration>3</duration><voice>1</voice><type>16th</type><stem>none</stem><staff>1</staff><notations><technical><string>3</string><fret>5</fret></technical></notations></note><note default-x="189.19"><pitch><step>G</step><alter>0</alter><octave>4</octave></pitch><duration>3</duration><voice>1</voice><type>16th</type><stem>none</stem><staff>1</staff><notations><technical><string>1</string><fret>3</fret></technical></notations><lyric default-y="-80" number="1"><syllabic>single</syllabic><text>phúc</text></lyric></note><note default-x="208.88"><pitch><step>E</step><alter>-1</alter><octave>4</octave></pitch><duration>3</duration><voice>1</voice><type>16th</type><stem>none</stem><staff>1</staff><notations><technical><string>2</string><fret>4</fret></technical></notations><lyric default-y="-80" number="1"><syllabic>single</syllabic><text>đầy</text></lyric></note><note default-x="208.88"><chord/><pitch><step>G</step><alter>0</alter><octave>4</octave></pitch><duration>3</duration><voice>1</voice><type>16th</type><stem>none</stem><staff>1</staff><notations><technical><string>1</string><fret>3</fret></technical></notations></note><note default-x="208.88"><chord/><pitch><step>C</step><alter>0</alter><octave>4</octave></pitch><duration>3</duration><voice>1</voice><type>16th</type><stem>none</stem><staff>1</staff><notations><technical><string>3</string><fret>5</fret></technical></notations></note><note default-x="228.56"><pitch><step>A</step><alter>0</alter><octave>4</octave></pitch><duration>3</duration><voice>1</voice><type>16th</type><stem>none</stem><staff>1</staff><notations><technical><string>1</string><fret>5</fret></technical></notations><lyric default-y="-80" number="1"><syllabic>single</syllabic><text>lòng</text></lyric></note><backup><duration>36</duration></backup></measure><measure number="3" width="339"><attributes><divisions>12</divisions></attributes><note default-x="12.00"><pitch><step>B</step><alter>-1</alter><octave>4</octave></pitch><duration>3</duration><voice>1</voice><type>16th</type><stem>none</stem><staff>1</staff><notations><technical><string>1</string><fret>6</fret></technical></notations><lyric default-y="-80" number="1"><syllabic>single</syllabic><text>Cấy</text></lyric></note><note default-x="12.00"><chord/><pitch><step>G</step><alter>0</alter><octave>2</octave></pitch><duration>3</duration><voice>1</voice><type>16th</type><stem>none</stem><staff>1</staff><notations><technical><string>6</string><fret>3</fret></technical></notations></note><note default-x="31.69"><pitch><step>A</step><alter>0</alter><octave>4</octave></pitch><duration>3</duration><voice>1</voice><type>16th</type><stem>none</stem><staff>1</staff><notations><technical><string>1</string><fret>5</fret></technical></notations><lyric default-y="-80" number="1"><syllabic>single</syllabic><text>cày</text></lyric></note><note default-x="51.38"><pitch><step>B</step><alter>-1</alter><octave>4</octave></pitch><duration>6</duration><voice>1</voice><type>eighth</type><stem>none</stem><staff>1</staff><notations><technical><string>1</string><fret>6</fret></technical></notations><lyric default-y="-80" number="1"><syllabic>single</syllabic><text>siêng</text></lyric></note><note default-x="51.38"><chord/><pitch><step>B</step><alter>-1</alter><octave>3</octave></pitch><duration>6</duration><voice>1</voice><type>eighth</type><stem>none</stem><staff>1</staff><notations><technical><string>3</string><fret>3</fret></technical></notations></note><note default-x="51.38"><chord/><pitch><step>D</step><alter>0</alter><octave>4</octave></pitch><duration>6</duration><voice>1</voice><type>eighth</type><stem>none</stem><staff>1</staff><notations><technical><string>2</string><fret>3</fret></technical></notations></note><note default-x="90.75"><pitch><step>D</step><alter>0</alter><octave>4</octave></pitch><duration>3</duration><voice>1</voice><type>16th</type><stem>none</stem><staff>1</staff><notations><technical><string>2</string><fret>3</fret></technical></notations><lyric default-y="-80" number="1"><syllabic>single</syllabic><text>năng</text></lyric></note><note default-x="90.75"><chord/><pitch><step>B</step><alter>-1</alter><octave>3</octave></pitch><duration>3</duration><voice>1</voice><type>16th</type><stem>none</stem><staff>1</staff><notations><technical><string>3</string><fret>3</fret></technical></notations></note><note default-x="110.44"><pitch><step>B</step><alter>-1</alter><octave>3</octave></pitch><duration>3</duration><voice>1</voice><type>16th</type><stem>none</stem><staff>1</staff><notations><technical><string>3</string><fret>3</fret></technical></notations><lyric default-y="-80" number="1"><syllabic>single</syllabic><text>sớm</text></lyric></note><note default-x="130.12"><pitch><step>G</step><alter>0</alter><octave>3</octave></pitch><duration>6</duration><voice>1</voice><type>eighth</type><stem>none</stem><staff>1</staff><notations><technical><string>3</string><fret>0</fret></technical></notations><lyric default-y="-80" number="1"><syllabic>single</syllabic><text>chiều</text></lyric></note><note default-x="169.50"><pitch><step>B</step><alter>-1</alter><octave>3</octave></pitch><duration>3</duration><voice>1</voice><type>16th</type><stem>none</stem><staff>1</staff><notations><technical><string>3</string><fret>3</fret></technical></notations><lyric default-y="-80" number="1"><syllabic>single</syllabic><text>Mùa</text></lyric></note><note default-x="169.50"><chord/><pitch><step>D</step><alter>0</alter><octave>4</octave></pitch><duration>3</duration><voice>1</voice><type>16th</type><stem>none</stem><staff>1</staff><notations><technical><string>2</string><fret>3</fret></technical></notations></note><note default-x="189.19"><pitch><step>G</step><alter>0</alter><octave>4</octave></pitch><duration>3</duration><voice>1</voice><type>16th</type><stem>none</stem><staff>1</staff><notations><technical><string>1</string><fret>3</fret></technical></notations><lyric default-y="-80" number="1"><syllabic>single</syllabic><text>màng</text></lyric></note><note default-x="208.88"><pitch><step>G</step><alter>0</alter><octave>4</octave></pitch><duration>3</duration><voice>1</voice><type>16th</type><stem>none</stem><staff>1</staff><notations><technical><string>1</string><fret>3</fret></technical></notations><lyric default-y="-80" number="1"><syllabic>single</syllabic><text>bội</text></lyric></note><note default-x="208.88"><chord/><pitch><step>B</step><alter>-1</alter><octave>3</octave></pitch><duration>3</duration><voice>1</voice><type>16th</type><stem>none</stem><staff>1</staff><notations><technical><string>3</string><fret>3</fret></technical></notations></note><note default-x="208.88"><chord/><pitch><step>D</step><alter>0</alter><octave>4</octave></pitch><duration>3</duration><voice>1</voice><type>16th</type><stem>none</stem><staff>1</staff><notations><technical><string>2</string><fret>3</fret></technical></notations></note><note default-x="228.56"><pitch><step>B</step><alter>-1</alter><octave>4</octave></pitch><duration>3</duration><voice>1</voice><type>16th</type><stem>none</stem><staff>1</staff><notations><technical><string>1</string><fret>6</fret></technical></notations><lyric default-y="-80" number="1"><syllabic>single</syllabic><text>thu</text></lyric></note><backup><duration>36</duration></backup></measure><measure number="4" width="339"><attributes><divisions>12</divisions></attributes><note default-x="12.00"><pitch><step>A</step><alter>0</alter><octave>4</octave></pitch><duration>6</duration><voice>1</voice><type>eighth</type><stem>none</stem><staff>1</staff><notations><technical><string>1</string><fret>5</fret></technical></notations><lyric default-y="-80" number="1"><syllabic>single</syllabic><text>mọi</text></lyric></note><note default-x="12.00"><chord/><pitch><step>F</step><alter>0</alter><octave>2</octave></pitch><duration>6</duration><voice>1</voice><type>eighth</type><stem>none</stem><staff>1</staff><notations><technical><string>6</string><fret>1</fret></technical></notations></note><note default-x="51.38"><pitch><step>A</step><alter>0</alter><octave>3</octave></pitch><duration>6</duration><voice>1</voice><type>eighth</type><stem>none</stem><staff>1</staff><notations><technical><string>3</string><fret>2</fret></technical></notations><lyric default-y="-80" number="1"><syllabic>single</syllabic><text>điều</text></lyric></note><note default-x="51.38"><chord/><pitch><step>D</step><alter>0</alter><octave>4</octave></pitch><duration>6</duration><voice>1</voice><type>eighth</type><stem>none</stem><staff>1</staff><notations><technical><string>2</string><fret>3</fret></technical></notations></note><note default-x="90.75"><pitch><step>A</step><alter>0</alter><octave>3</octave></pitch><duration>3</duration><voice>1</voice><type>16th</type><stem>none</stem><staff>1</staff><notations><technical><string>3</string><fret>2</fret></technical></notations><lyric default-y="-80" number="1"><syllabic>single</syllabic><text>Lúa</text></lyric></note><note default-x="90.75"><chord/><pitch><step>D</step><alter>0</alter><octave>4</octave></pitch><duration>3</duration><voice>1</voice><type>16th</type><stem>none</stem><staff>1</staff><notations><technical><string>2</string><fret>3</fret></technical></notations></note><note default-x="110.44"><pitch><step>G</step><alter>0</alter><octave>4</octave></pitch><duration>3</duration><voice>1</voice><type>16th</type><stem>none</stem><staff>1</staff><notations><technical><string>1</string><fret>3</fret></technical></notations><lyric default-y="-80" number="1"><syllabic>single</syllabic><text>thơm</text></lyric></note><note default-x="130.12"><pitch><step>G</step><alter>0</alter><octave>4</octave></pitch><duration>6</duration><voice>1</voice><type>eighth</type><stem>none</stem><staff>1</staff><notations><technical><string>1</string><fret>3</fret></technical></notations><lyric default-y="-80" number="1"><syllabic>single</syllabic><text>gạo</text></lyric></note><note default-x="130.12"><chord/><pitch><step>F</step><alter>0</alter><octave>3</octave></pitch><duration>6</duration><voice>1</voice><type>eighth</type><stem>none</stem><staff>1</staff><notations><technical><string>4</string><fret>3</fret></technical></notations></note><note default-x="169.50"><pitch><step>G</step><alter>0</alter><octave>4</octave></pitch><duration>6</duration><voice>1</voice><type>eighth</type><stem>none</stem><staff>1</staff><notations><technical><string>1</string><fret>3</fret></technical></notations><lyric default-y="-80" number="1"><syllabic>single</syllabic><text>trắng</text></lyric></note><note default-x="169.50"><chord/><pitch><step>A</step><alter>0</alter><octave>3</octave></pitch><duration>6</duration><voice>1</voice><type>eighth</type><stem>none</stem><staff>1</staff><notations><technical><string>3</string><fret>2</fret></technical></notations></note><note default-x="169.50"><chord/><pitch><step>D</step><alter>0</alter><octave>4</octave></pitch><duration>6</duration><voice>1</voice><type>eighth</type><stem>none</stem><staff>1</staff><notations><technical><string>2</string><fret>3</fret></technical></notations></note><note default-x="208.88"><pitch><step>A</step><alter>0</alter><octave>3</octave></pitch><duration>3</duration><voice>1</voice><type>16th</type><stem>none</stem><staff>1</staff><notations><technical><string>3</string><fret>2</fret></technical></notations><lyric default-y="-80" number="1"><syllabic>single</syllabic><text>đầy</text></lyric></note><note default-x="228.56"><pitch><step>F</step><alter>0</alter><octave>4</octave></pitch><duration>3</duration><voice>1</voice><type>16th</type><stem>none</stem><staff>1</staff><notations><technical><string>1</string><fret>1</fret></technical></notations><lyric default-y="-80" number="1"><syllabic>single</syllabic><text>bồ</text></lyric></note><backup><duration>36</duration></backup></measure><measure number="5" width="339"><attributes><divisions>12</divisions></attributes><note default-x="12.00"><pitch><step>G</step><alter>0</alter><octave>4</octave></pitch><duration>6</duration><voice>1</voice><type>eighth</type><stem>none</stem><staff>1</staff><notations><technical><string>1</string><fret>3</fret></technical></notations><lyric default-y="-80" number="1"><syllabic>single</syllabic><text>Gia</text></lyric></note><note default-x="12.00"><chord/><pitch><step>E</step><alter>-1</alter><octave>3</octave></pitch><duration>6</duration><voice>1</voice><type>eighth</type><stem>none</stem><staff>1</staff><notations><technical><string>4</string><fret>1</fret></technical></notations></note><note default-x="51.38"><pitch><step>G</step><alter>0</alter><octave>3</octave></pitch><duration>6</duration><voice>1</voice><type>eighth</type><stem>none</stem><staff>1</staff><notations><technical><string>4</string><fret>5</fret></technical></notations><lyric default-y="-80" number="1"><syllabic>single</syllabic><text>đình</text></lyric></note><note default-x="51.38"><chord/><pitch><step>B</step><alter>-1</alter><octave>3</octave></pitch><duration>6</duration><voice>1</voice><type>eighth</type><stem>none</stem><staff>1</staff><notations><technical><string>3</string><fret>3</fret></technical></notations></note><note default-x="90.75"><pitch><step>B</step><alter>-1</alter><octave>3</octave></pitch><duration>6</duration><voice>1</voice><type>eighth</type><stem>none</stem><staff>1</staff><notations><technical><string>3</string><fret>3</fret></technical></notations><lyric default-y="-80" number="1"><syllabic>single</syllabic><text>sung</text></lyric></note><note default-x="90.75"><chord/><pitch><step>G</step><alter>0</alter><octave>3</octave></pitch><duration>6</duration><voice>1</voice><type>eighth</type><stem>none</stem><staff>1</staff><notations><technical><string>4</string><fret>5</fret></technical></notations></note><note default-x="130.12"><pitch><step>E</step><alter>-1</alter><octave>3</octave></pitch><duration>6</duration><voice>1</voice><type>eighth</type><stem>none</stem><staff>1</staff><notations><technical><string>5</string><fret>6</fret></technical></notations><lyric default-y="-80" number="1"><syllabic>single</syllabic><text>túc</text></lyric></note><note default-x="169.50"><pitch><step>B</step><alter>-1</alter><octave>3</octave></pitch><duration>3</duration><voice>1</voice><type>16th</type><stem>none</stem><staff>1</staff><notations><technical><string>4</string><fret>8</fret></technical></notations><lyric default-y="-80" number="1"><syllabic>single</syllabic><text>ấm</text></lyric></note><note default-x="169.50"><chord/><pitch><step>G</step><alter>0</alter><octave>3</octave></pitch><duration>3</duration><voice>1</voice><type>16th</type><stem>none</stem><staff>1</staff><notations><technical><string>3</string><fret>0</fret></technical></notations></note><note default-x="189.19"><pitch><step>G</step><alter>0</alter><octave>4</octave></pitch><duration>3</duration><voice>1</voice><type>16th</type><stem>none</stem><staff>1</staff><notations><technical><string>2</string><fret>8</fret></technical></notations><lyric default-y="-80" number="1"><syllabic>single</syllabic><text>no</text></lyric></note><note default-x="208.88"><pitch><step>G</step><alter>0</alter><octave>3</octave></pitch><duration>3</duration><voice>1</voice><type>16th</type><stem>none</stem><staff>1</staff><notations><technical><string>3</string><fret>0</fret></technical></notations><lyric default-y="-80" number="1"><syllabic>single</syllabic><text>Lộc</text></lyric></note><note default-x="208.88"><chord/><pitch><step>G</step><alter>0</alter><octave>4</octave></pitch><duration>3</duration><voice>1</voice><type>16th</type><stem>none</stem><staff>1</staff><notations><technical><string>2</string><fret>8</fret></technical></notations></note><note default-x="208.88"><chord/><pitch><step>B</step><alter>-1</alter><octave>3</octave></pitch><duration>3</duration><voice>1</voice><type>16th</type><stem>none</stem><staff>1</staff><notations><technical><string>4</string><fret>8</fret></technical></notations></note><note default-x="228.56"><pitch><step>B</step><alter>-1</alter><octave>4</octave></pitch><duration>3</duration><voice>1</voice><type>16th</type><stem>none</stem><staff>1</staff><notations><technical><string>1</string><fret>6</fret></technical></notations><lyric default-y="-80" number="1"><syllabic>single</syllabic><text>xuân</text></lyric></note><backup><duration>36</duration></backup></measure><measure number="6" width="339"><attributes><divisions>12</divisions></attributes><note default-x="12.00"><pitch><step>C</step><alter>0</alter><octave>3</octave></pitch><duration>3</duration><voice>1</voice><type>16th</type><stem>none</stem><staff>1</staff><notations><technical><string>6</string><fret>8</fret></technical></notations><lyric default-y="-80" number="1"><syllabic>single</syllabic><text>phơi</text></lyric></note><note default-x="12.00"><chord/><pitch><step>C</step><alter>0</alter><octave>5</octave></pitch><duration>3</duration><voice>1</voice><type>16th</type><stem>none</stem><staff>1</staff><notations><technical><string>1</string><fret>8</fret></technical></notations></note><note default-x="31.69"><pitch><step>B</step><alter>-1</alter><octave>4</octave></pitch><duration>3</duration><voice>1</voice><type>16th</type><stem>none</stem><staff>1</staff><notations><technical><string>1</string><fret>6</fret></technical></notations><lyric default-y="-80" number="1"><syllabic>single</syllabic><text>phới</text></lyric></note><note default-x="51.38"><pitch><step>C</step><alter>0</alter><octave>5</octave></pitch><duration>6</duration><voice>1</voice><type>eighth</type><stem>none</stem><staff>1</staff><notations><technical><string>1</string><fret>8</fret></technical></notations><lyric default-y="-80" number="1"><syllabic>single</syllabic><text>muôn</text></lyric></note><note default-x="51.38"><chord/><pitch><step>E</step><alter>-1</alter><octave>4</octave></pitch><duration>6</duration><voice>1</voice><type>eighth</type><stem>none</stem><staff>1</staff><notations><technical><string>3</string><fret>8</fret></technical></notations></note><note default-x="90.75"><pitch><step>E</step><alter>-1</alter><octave>4</octave></pitch><duration>6</duration><voice>1</voice><type>eighth</type><stem>none</stem><staff>1</staff><notations><technical><string>3</string><fret>8</fret></technical></notations><lyric default-y="-80" number="1"><syllabic>single</syllabic><text>nhà</text></lyric></note><note default-x="130.12"><pitch><step>G</step><alter>0</alter><octave>3</octave></pitch><duration>3</duration><voice>1</voice><type>16th</type><stem>none</stem><staff>1</staff><notations><technical><string>3</string><fret>0</fret></technical></notations><lyric default-y="-80" number="1"><syllabic>single</syllabic><text>An</text></lyric></note><note default-x="149.81"><pitch><step>D</step><alter>0</alter><octave>5</octave></pitch><duration>3</duration><voice>1</voice><type>16th</type><stem>none</stem><staff>1</staff><notations><technical><string>1</string><fret>10</fret></technical></notations><lyric default-y="-80" number="1"><syllabic>single</syllabic><text>khang</text></lyric></note><note default-x="169.50"><pitch><step>C</step><alter>0</alter><octave>5</octave></pitch><duration>3</duration><voice>1</voice><type>16th</type><stem>none</stem><staff>1</staff><notations><technical><string>1</string><fret>8</fret></technical></notations><lyric default-y="-80" number="1"><syllabic>single</syllabic><text>thịnh</text></lyric></note><note default-x="169.50"><chord/><pitch><step>E</step><alter>-1</alter><octave>4</octave></pitch><duration>3</duration><voice>1</voice><type>16th</type><stem>none</stem><staff>1</staff><notations><technical><string>3</string><fret>8</fret></technical></notations></note><note default-x="189.19"><pitch><step>B</step><alter>-1</alter><octave>4</octave></pitch><duration>3</duration><voice>1</voice><type>16th</type><stem>none</stem><staff>1</staff><notations><technical><string>1</string><fret>6</fret></technical></notations><lyric default-y="-80" number="1"><syllabic>single</syllabic><text>vượng</text></lyric></note><note default-x="208.88"><pitch><step>C</step><alter>0</alter><octave>4</octave></pitch><duration>3</duration><voice>1</voice><type>16th</type><stem>none</stem><staff>1</staff><notations><technical><string>3</string><fret>5</fret></technical></notations><lyric default-y="-80" number="1"><syllabic>single</syllabic><text>gần</text></lyric></note><note default-x="208.88"><chord/><pitch><step>G</step><alter>0</alter><octave>4</octave></pitch><duration>3</duration><voice>1</voice><type>16th</type><stem>none</stem><staff>1</staff><notations><technical><string>1</string><fret>3</fret></technical></notations></note><note default-x="228.56"><pitch><step>A</step><alter>0</alter><octave>4</octave></pitch><duration>3</duration><voice>1</voice><type>16th</type><stem>none</stem><staff>1</staff><notations><technical><string>1</string><fret>5</fret></technical></notations><lyric default-y="-80" number="1"><syllabic>single</syllabic><text>xa</text></lyric></note><backup><duration>36</duration></backup></measure><measure number="7" width="339"><attributes><divisions>12</divisions></attributes><note default-x="12.00"><pitch><step>B</step><alter>-1</alter><octave>4</octave></pitch><duration>3</duration><voice>1</voice><type>16th</type><stem>none</stem><staff>1</staff><notations><technical><string>1</string><fret>6</fret></technical></notations><lyric default-y="-80" number="1"><syllabic>single</syllabic><text>Làm</text></lyric></note><note default-x="12.00"><chord/><pitch><step>G</step><alter>0</alter><octave>2</octave></pitch><duration>3</duration><voice>1</voice><type>16th</type><stem>none</stem><staff>1</staff><notations><technical><string>6</string><fret>3</fret></technical></notations></note><note default-x="31.69"><pitch><step>A</step><alter>0</alter><octave>4</octave></pitch><duration>3</duration><voice>1</voice><type>16th</type><stem>none</stem><staff>1</staff><notations><technical><string>1</string><fret>5</fret></technical></notations><lyric default-y="-80" number="1"><syllabic>single</syllabic><text>ăn</text></lyric></note><note default-x="51.38"><pitch><step>B</step><alter>-1</alter><octave>4</octave></pitch><duration>6</duration><voice>1</voice><type>eighth</type><stem>none</stem><staff>1</staff><notations><technical><string>1</string><fret>6</fret></technical></notations><lyric default-y="-80" number="1"><syllabic>single</syllabic><text>phát</text></lyric></note><note default-x="51.38"><chord/><pitch><step>B</step><alter>-1</alter><octave>3</octave></pitch><duration>6</duration><voice>1</voice><type>eighth</type><stem>none</stem><staff>1</staff><notations><technical><string>3</string><fret>3</fret></technical></notations></note><note default-x="51.38"><chord/><pitch><step>D</step><alter>0</alter><octave>4</octave></pitch><duration>6</duration><voice>1</voice><type>eighth</type><stem>none</stem><staff>1</staff><notations><technical><string>2</string><fret>3</fret></technical></notations></note><note default-x="90.75"><pitch><step>D</step><alter>0</alter><octave>4</octave></pitch><duration>6</duration><voice>1</voice><type>eighth</type><stem>none</stem><staff>1</staff><notations><technical><string>2</string><fret>3</fret></technical></notations><lyric default-y="-80" number="1"><syllabic>single</syllabic><text>đạt</text></lyric></note><note default-x="90.75"><chord/><pitch><step>B</step><alter>-1</alter><octave>3</octave></pitch><duration>6</duration><voice>1</voice><type>eighth</type><stem>none</stem><staff>1</staff><notations><technical><string>3</string><fret>3</fret></technical></notations></note><note default-x="130.12"><pitch><step>G</step><alter>0</alter><octave>3</octave></pitch><duration>6</duration><voice>1</voice><type>eighth</type><stem>none</stem><staff>1</staff><notations><technical><string>3</string><fret>0</fret></technical></notations><lyric default-y="-80" number="1"><syllabic>single</syllabic><text>tấn</text></lyric></note><note default-x="169.50"><pitch><step>B</step><alter>-1</alter><octave>4</octave></pitch><duration>3</duration><voice>1</voice><type>16th</type><stem>none</stem><staff>1</staff><notations><technical><string>1</string><fret>6</fret></technical></notations><lyric default-y="-80" number="1"><syllabic>single</syllabic><text>tài</text></lyric></note><note default-x="169.50"><chord/><pitch><step>D</step><alter>0</alter><octave>4</octave></pitch><duration>3</duration><voice>1</voice><type>16th</type><stem>none</stem><staff>1</staff><notations><technical><string>2</string><fret>3</fret></technical></notations></note><note default-x="169.50"><chord/><pitch><step>B</step><alter>-1</alter><octave>3</octave></pitch><duration>3</duration><voice>1</voice><type>16th</type><stem>none</stem><staff>1</staff><notations><technical><string>3</string><fret>3</fret></technical></notations></note><note default-x="189.19"><pitch><step>B</step><alter>-1</alter><octave>4</octave></pitch><duration>3</duration><voice>1</voice><type>16th</type><stem>none</stem><staff>1</staff><notations><technical><string>1</string><fret>6</fret></technical></notations><lyric default-y="-80" number="1"><syllabic>single</syllabic><text>Cả</text></lyric></note><note default-x="208.88"><pitch><step>B</step><alter>-1</alter><octave>4</octave></pitch><duration>3</duration><voice>1</voice><type>16th</type><stem>none</stem><staff>1</staff><notations><technical><string>1</string><fret>6</fret></technical></notations><lyric default-y="-80" number="1"><syllabic>single</syllabic><text>năm</text></lyric></note><note default-x="208.88"><chord/><pitch><step>D</step><alter>0</alter><octave>4</octave></pitch><duration>3</duration><voice>1</voice><type>16th</type><stem>none</stem><staff>1</staff><notations><technical><string>3</string><fret>7</fret></technical></notations></note><note default-x="208.88"><chord/><pitch><step>B</step><alter>-1</alter><octave>3</octave></pitch><duration>3</duration><voice>1</voice><type>16th</type><stem>none</stem><staff>1</staff><notations><technical><string>4</string><fret>8</fret></technical></notations></note><note default-x="228.56"><pitch><step>C</step><alter>0</alter><octave>5</octave></pitch><duration>3</duration><voice>1</voice><type>16th</type><stem>none</stem><staff>1</staff><notations><technical><string>1</string><fret>8</fret></technical></notations><lyric default-y="-80" number="1"><syllabic>single</syllabic><text>may</text></lyric></note><backup><duration>36</duration></backup></measure><measure number="8" width="339"><attributes><divisions>12</divisions></attributes><note default-x="12.00"><pitch><step>A</step><alter>0</alter><octave>4</octave></pitch><duration>6</duration><voice>1</voice><type>eighth</type><stem>none</stem><staff>1</staff><notations><technical><string>1</string><fret>5</fret></technical></notations><lyric default-y="-80" number="1"><syllabic>single</syllabic><text>mắn</text></lyric></note><note default-x="12.00"><chord/><pitch><step>F</step><alter>0</alter><octave>2</octave></pitch><duration>6</duration><voice>1</voice><type>eighth</type><stem>none</stem><staff>1</staff><notations><technical><string>6</string><fret>1</fret></technical></notations></note><note default-x="51.38"><pitch><step>A</step><alter>0</alter><octave>3</octave></pitch><duration>6</duration><voice>1</voice><type>eighth</type><stem>none</stem><staff>1</staff><notations><technical><string>3</string><fret>2</fret></technical></notations><lyric default-y="-80" number="1"><syllabic>single</syllabic><text>gặp</text></lyric></note><note default-x="51.38"><chord/><pitch><step>D</step><alter>0</alter><octave>4</octave></pitch><duration>6</duration><voice>1</voice><type>eighth</type><stem>none</stem><staff>1</staff><notations><technical><string>2</string><fret>3</fret></technical></notations></note><note default-x="90.75"><pitch><step>A</step><alter>0</alter><octave>3</octave></pitch><duration>3</duration><voice>1</voice><type>16th</type><stem>none</stem><staff>1</staff><notations><technical><string>3</string><fret>2</fret></technical></notations><lyric default-y="-80" number="1"><syllabic>single</syllabic><text>hoài</text></lyric></note><note default-x="90.75"><chord/><pitch><step>D</step><alter>0</alter><octave>4</octave></pitch><duration>3</duration><voice>1</voice><type>16th</type><stem>none</stem><staff>1</staff><notations><technical><string>2</string><fret>3</fret></technical></notations></note><note default-x="110.44"><pitch><step>G</step><alter>0</alter><octave>4</octave></pitch><duration>3</duration><voice>1</voice><type>16th</type><stem>none</stem><staff>1</staff><notations><technical><string>1</string><fret>3</fret></technical></notations><lyric default-y="-80" number="1"><syllabic>single</syllabic><text>(Lời</text></lyric></note><note default-x="130.12"><pitch><step>F</step><alter>0</alter><octave>3</octave></pitch><duration>6</duration><voice>1</voice><type>eighth</type><stem>none</stem><staff>1</staff><notations><technical><string>4</string><fret>3</fret></technical></notations><lyric default-y="-80" number="1"><syllabic>single</syllabic><text>tiễn)</text></lyric></note><note default-x="130.12"><chord/><pitch><step>G</step><alter>0</alter><octave>4</octave></pitch><duration>6</duration><voice>1</voice><type>eighth</type><stem>none</stem><staff>1</staff><notations><technical><string>1</string><fret>3</fret></technical></notations></note><note default-x="169.50"><pitch><step>G</step><alter>0</alter><octave>4</octave></pitch><duration>12</duration><voice>1</voice><type>quarter</type><stem>none</stem><staff>1</staff><notations><technical><string>1</string><fret>3</fret></technical></notations><lyric default-y="-80" number="1"><syllabic>single</syllabic><text>Con</text></lyric></note><note default-x="169.50"><chord/><pitch><step>A</step><alter>0</alter><octave>3</octave></pitch><duration>12</duration><voice>1</voice><type>quarter</type><stem>none</stem><staff>1</staff><notations><technical><string>3</string><fret>2</fret></technical></notations></note><note default-x="169.50"><chord/><pitch><step>D</step><alter>0</alter><octave>4</octave></pitch><duration>12</duration><voice>1</voice><type>quarter</type><stem>none</stem><staff>1</staff><notations><technical><string>2</string><fret>3</fret></technical></notations></note><backup><duration>36</duration></backup></measure></part></score-partwise>